<svg width="28" height="28" viewBox="0 0 28 28" fill="none" xmlns="http://www.w3.org/2000/svg">
<path d="M5.35443 2.00316C5.44161 2.04653 5.52881 2.08986 5.61603 2.13314C5.85455 2.25167 6.09271 2.37088 6.33083 2.4902C6.58812 2.61899 6.84572 2.74714 7.10328 2.87538C7.60738 3.12651 8.11118 3.37824 8.61487 3.63019C9.02435 3.83502 9.43392 4.03965 9.84356 4.24415C9.96166 4.30311 10.0798 4.36207 10.1979 4.42103C10.2566 4.45037 10.3154 4.47972 10.376 4.50996C11.4871 5.06469 12.5978 5.62015 13.7085 6.17582C14.724 6.68389 15.74 7.19103 16.7563 7.69773C17.8004 8.21834 18.8442 8.73959 19.8876 9.26154C20.4732 9.55444 21.0589 9.84707 21.6449 10.139C22.1438 10.3876 22.6424 10.6367 23.1405 10.8866C23.3946 11.0141 23.6487 11.1412 23.9033 11.2676C24.1366 11.3834 24.3695 11.5001 24.6021 11.6174C24.686 11.6595 24.7701 11.7014 24.8543 11.7429C25.6088 12.1152 26.2267 12.5284 26.5128 13.3629C26.673 13.9851 26.5795 14.5984 26.2705 15.1588C25.8885 15.7357 25.3349 16.0164 24.7323 16.3141C24.6447 16.3581 24.5571 16.4022 24.4695 16.4463C24.23 16.5668 23.99 16.6863 23.7499 16.8056C23.4907 16.9347 23.2318 17.0647 22.9729 17.1946C22.4661 17.4486 21.959 17.7018 21.4517 17.9547C20.8608 18.2493 20.2703 18.5447 19.6798 18.8401C18.6262 19.3671 17.5722 19.8934 16.518 20.4193C15.4953 20.9295 14.4728 21.4403 13.4507 21.9518C12.3373 22.509 11.2237 23.0659 10.1098 23.6221C9.99106 23.6814 9.87229 23.7407 9.75352 23.8C9.66586 23.8438 9.66586 23.8438 9.57644 23.8885C9.16474 24.0941 8.75316 24.2999 8.34162 24.5059C7.84016 24.7568 7.33851 25.0073 6.83659 25.2573C6.58054 25.3849 6.32458 25.5126 6.06886 25.6408C5.83472 25.7582 5.60033 25.875 5.36574 25.9915C5.28097 26.0337 5.19629 26.0761 5.11171 26.1187C4.3698 26.492 3.71029 26.7224 2.8837 26.4706C2.33032 26.2616 1.90314 25.8975 1.62012 25.3751C1.33888 24.7454 1.39698 24.1355 1.55863 23.4823C1.57329 23.4211 1.58795 23.3598 1.60304 23.2967C1.65131 23.0961 1.70056 22.8957 1.75 22.6954C1.76657 22.6278 1.78313 22.5601 1.8002 22.4904C1.91767 22.0109 2.03699 21.5319 2.15693 21.053C2.20807 20.8487 2.25909 20.6444 2.31012 20.4401C2.39538 20.0989 2.48074 19.7577 2.56616 19.4165C2.66486 19.0223 2.76337 18.6281 2.86179 18.2338C2.94688 17.893 3.03207 17.5521 3.11734 17.2113C3.16804 17.0087 3.2187 16.8061 3.26927 16.6034C3.31652 16.4141 3.36389 16.2249 3.41135 16.0356C3.43706 15.933 3.46264 15.8304 3.48822 15.7277C3.50346 15.6671 3.51871 15.6064 3.53442 15.5439C3.54765 15.491 3.56089 15.4381 3.57452 15.3836C3.60938 15.2579 3.60938 15.2579 3.66406 15.1485C3.81149 15.1176 3.81149 15.1176 4.01123 15.0934C4.04774 15.089 4.08425 15.0845 4.12186 15.0799C4.59595 15.0234 5.07147 14.9801 5.54688 14.9364C5.65109 14.9267 5.7553 14.917 5.85951 14.9073C6.14003 14.8811 6.42057 14.8552 6.70112 14.8293C6.93611 14.8076 7.17109 14.7858 7.40608 14.7641C7.9605 14.7127 8.51494 14.6615 9.06939 14.6104C9.64011 14.5577 10.2108 14.5048 10.7815 14.4517C11.273 14.406 11.7646 14.3605 12.2562 14.3152C12.5491 14.2882 12.8421 14.2611 13.135 14.2338C13.4102 14.2081 13.6855 14.1827 13.9607 14.1575C14.0614 14.1483 14.162 14.1389 14.2626 14.1295C14.7592 14.0829 15.2505 14.0385 15.75 14.0548C15.75 14.0187 15.75 13.9826 15.75 13.9454C15.704 13.9471 15.704 13.9471 15.657 13.9487C15.1181 13.9588 14.5853 13.9011 14.0495 13.8509C13.9387 13.8407 13.828 13.8306 13.7173 13.8205C13.4181 13.793 13.1189 13.7653 12.8198 13.7374C12.5064 13.7083 12.1929 13.6794 11.8794 13.6506C11.3536 13.6021 10.8277 13.5533 10.3019 13.5045C9.69374 13.448 9.08558 13.3918 8.4774 13.3358C7.89196 13.2819 7.30654 13.2278 6.72113 13.1736C6.47206 13.1505 6.22298 13.1275 5.9739 13.1046C5.681 13.0776 5.38811 13.0504 5.09523 13.0231C4.98765 13.0131 4.88007 13.0032 4.77248 12.9933C4.62589 12.9798 4.47932 12.9661 4.33276 12.9524C4.28997 12.9485 4.24718 12.9446 4.2031 12.9406C4.01845 12.9231 3.84312 12.8996 3.66406 12.8517C3.41407 11.9841 3.19679 11.1082 2.9782 10.2323C2.92553 10.0213 2.87274 9.81043 2.81997 9.59951C2.73163 9.24635 2.6434 8.89316 2.55523 8.53996C2.45345 8.13228 2.3515 7.72464 2.24944 7.31703C2.16138 6.96527 2.07341 6.61348 1.98553 6.26167C1.93323 6.05229 1.88089 5.84291 1.82846 5.63356C1.77933 5.43733 1.73032 5.24107 1.68141 5.04479C1.65496 4.93878 1.62838 4.8328 1.6018 4.72681C1.58601 4.66337 1.57023 4.59992 1.55396 4.53454C1.5334 4.45223 1.5334 4.45223 1.51242 4.36824C1.34751 3.64532 1.39208 3.02942 1.76709 2.38308C2.07628 1.91142 2.54475 1.59499 3.09326 1.45617C3.94011 1.31026 4.6148 1.63093 5.35443 2.00316Z" fill="white"/>
</svg>
