<svg width="36" height="36" viewBox="0 0 36 36" fill="none" xmlns="http://www.w3.org/2000/svg">
<path d="M28.0122 35.981L8.02277 36C3.62509 36.004 0.0239907 32.4099 0.0189934 28.0122L3.33205e-06 8.02277C-0.00399456 3.62509 3.59011 0.0239907 7.98779 0.0189934L27.9772 3.33205e-06C32.3749 -0.00399456 35.976 3.59011 35.981 7.98779L36 27.9772C36.005 32.3759 32.4099 35.977 28.0122 35.981Z" fill="url(#paint0_radial_106_174)"/>
<path d="M28.0122 35.981L8.02277 36C3.62509 36.004 0.0239907 32.4099 0.0189934 28.0122L3.33205e-06 8.02277C-0.00399456 3.62509 3.59011 0.0239907 7.98779 0.0189934L27.9772 3.33205e-06C32.3749 -0.00399456 35.976 3.59011 35.981 7.98779L36 27.9772C36.005 32.3759 32.4099 35.977 28.0122 35.981Z" fill="#AEA192"/>
<path d="M18.0005 24.9968C14.1436 24.9968 11.0042 21.8585 11.0042 18.0005C11.0042 14.1425 14.1436 11.0042 18.0005 11.0042C21.8575 11.0042 24.9968 14.1425 24.9968 18.0005C24.9968 21.8585 21.8575 24.9968 18.0005 24.9968ZM18.0005 13.0031C15.245 13.0031 13.0032 15.245 13.0032 18.0005C13.0032 20.756 15.245 22.9979 18.0005 22.9979C20.7561 22.9979 22.9979 20.756 22.9979 18.0005C22.9979 15.245 20.7561 13.0031 18.0005 13.0031Z" fill="#2D2E32"/>
<path d="M25.4966 12.0037C26.3245 12.0037 26.9958 11.3324 26.9958 10.5045C26.9958 9.67647 26.3245 9.00525 25.4966 9.00525C24.6686 9.00525 23.9973 9.67647 23.9973 10.5045C23.9973 11.3324 24.6686 12.0037 25.4966 12.0037Z" fill="#2D2E32"/>
<path d="M23.9974 30.9937H12.0037C8.14673 30.9937 5.00739 27.8553 5.00739 23.9973V12.0037C5.00739 8.14571 8.14673 5.00737 12.0037 5.00737H23.9974C27.8543 5.00737 30.9937 8.14571 30.9937 12.0037V23.9973C30.9937 27.8553 27.8543 30.9937 23.9974 30.9937ZM12.0037 7.00631C9.24815 7.00631 7.00633 9.24813 7.00633 12.0037V23.9973C7.00633 26.7529 9.24815 28.9947 12.0037 28.9947H23.9974C26.7529 28.9947 28.9947 26.7529 28.9947 23.9973V12.0037C28.9947 9.24813 26.7529 7.00631 23.9974 7.00631H12.0037Z" fill="#2D2E32"/>
<defs>
<radialGradient id="paint0_radial_106_174" cx="0" cy="0" r="1" gradientUnits="userSpaceOnUse" gradientTransform="translate(13.3829 36.026) scale(44.8753 44.8753)">
<stop stop-color="#FFDD55"/>
<stop offset="0.328" stop-color="#FF543F"/>
<stop offset="0.348" stop-color="#FC5245"/>
<stop offset="0.504" stop-color="#E64771"/>
<stop offset="0.643" stop-color="#D53E91"/>
<stop offset="0.761" stop-color="#CC39A4"/>
<stop offset="0.841" stop-color="#C837AB"/>
</radialGradient>
</defs>
</svg>
