<svg width="36" height="36" viewBox="0 0 36 36" fill="none" xmlns="http://www.w3.org/2000/svg">
<path d="M18 0C8.05915 0 0 8.05915 0 18C0 26.4995 5.89292 33.6185 13.815 35.5057C13.4052 35.4081 12.9988 35.2987 12.6 35.1741V31.05C12.6 31.05 11.925 31.275 11.025 31.275C8.50708 31.275 7.461 29.0285 7.2 27.9C7.04146 27.2125 6.62746 26.5611 6.183 26.163C5.652 25.6895 5.40346 25.6881 5.4 25.5261C5.39308 25.1862 5.85554 25.2 6.075 25.2C7.2 25.2 8.05292 26.397 8.44892 27.0159C9.42992 28.5438 10.4829 28.8 11.025 28.8C11.7 28.8 12.2829 28.6989 12.6845 28.5051C12.87 27.198 13.4515 26.0335 14.4 25.2C10.179 24.3561 7.2 21.9351 7.2 18C7.2 15.9729 8.01346 14.1099 9.369 12.6055C9.23054 12.213 9 11.4189 9 10.125C9 9.27 9.05954 8.22046 9.45 7.2C9.45 7.2 12.0171 7.218 14.4381 9.51092C15.5555 9.18554 16.7511 9 18 9C19.2489 9 20.4445 9.18554 21.5619 9.51092C23.9829 7.218 26.55 7.2 26.55 7.2C26.9425 8.22046 27 9.27 27 10.125C27 11.52 26.8145 12.3335 26.7009 12.6845C28.0149 14.175 28.8 16.0089 28.8 18C28.8 21.9351 25.821 24.3561 21.6 25.2C22.7271 26.19 23.4 27.6321 23.4 29.25V35.1741C23.0012 35.2994 22.5955 35.4081 22.185 35.5057C30.1071 33.6185 36 26.4995 36 18C36 8.05915 27.9408 0 18 0ZM19.2552 35.9515C18.8405 35.9806 18.4223 36 18 36C18.4223 36 18.8398 35.9799 19.2552 35.9515ZM18 36C17.5777 36 17.1595 35.9806 16.7448 35.9515C17.1602 35.9799 17.5777 36 18 36ZM16.4686 35.9308C15.6261 35.8595 14.7995 35.7307 13.9943 35.5472C14.8002 35.73 15.6261 35.8595 16.4686 35.9308Z" fill="#AEA192"/>
</svg>
