<svg width="100" height="100" viewBox="0 0 100 100" fill="none" xmlns="http://www.w3.org/2000/svg">
<path d="M16.6667 77.0833L48.4042 17.575C49.0729 16.3208 50.8813 16.3437 51.5167 17.6167L62.5 39.5833L16.6667 77.0833Z" fill="#FF8F00"/>
<path d="M16.6667 77.0667L28.2209 5.81875C28.5229 3.95416 31.0271 3.55 31.9021 5.225L54.1667 47.9L16.6667 77.0667Z" fill="#FFA000"/>
<path d="M16.6833 77.0542L17.1 76.7271L53.6188 46.85L43.3188 27.1083L16.6833 77.0542Z" fill="#FF6F00"/>
<path d="M16.6667 77.0833L72.2209 23.5146C73.3854 22.3917 75.3292 23.0542 75.5667 24.6542L83.3334 77.0833L52.0834 95.2979C50.8146 96.0104 49.2667 96.0104 47.9979 95.2979L16.6667 77.0833Z" fill="#FFC400"/>
</svg>
