<svg width="100" height="100" viewBox="0 0 100 100" fill="none" xmlns="http://www.w3.org/2000/svg">
<path fill-rule="evenodd" clip-rule="evenodd" d="M47.7146 6.84583C49.1292 6.05208 50.8708 6.05208 52.2833 6.84583C59.2729 10.7687 80.3062 22.5771 87.2979 26.5C88.7125 27.2917 89.5833 28.7583 89.5833 30.3458C89.5833 38.1917 89.5833 61.8062 89.5833 69.6521C89.5833 71.2396 88.7125 72.7062 87.2979 73.5C80.3083 77.4229 59.275 89.2312 52.2833 93.1542C50.8687 93.9479 49.1271 93.9479 47.7146 93.1542C40.725 89.2312 19.6917 77.4229 12.7 73.5C11.2875 72.7062 10.4167 71.2417 10.4167 69.6542C10.4167 61.8083 10.4167 38.1937 10.4167 30.3479C10.4167 28.7604 11.2875 27.2937 12.7021 26.5C19.6896 22.5771 40.7271 10.7687 47.7146 6.84583Z" fill="#00549D"/>
<path fill-rule="evenodd" clip-rule="evenodd" d="M11.05 71.675C10.4958 70.9333 10.4167 70.2292 10.4167 69.2813C10.4167 61.4813 10.4167 38.0021 10.4167 30.2C10.4167 28.6208 11.2854 27.1625 12.6958 26.375C19.6604 22.475 40.6229 10.7354 47.5875 6.83334C48.9979 6.04376 50.9083 6.06042 52.3187 6.85001C59.2833 10.75 80.175 22.3896 87.1396 26.2896C87.7021 26.6063 88.1312 26.9875 88.5146 27.4896L11.05 71.675Z" fill="#0086D4"/>
<path fill-rule="evenodd" clip-rule="evenodd" d="M50 20.8333C66.0979 20.8333 79.1667 33.9021 79.1667 50C79.1667 66.0979 66.0979 79.1667 50 79.1667C33.9021 79.1667 20.8333 66.0979 20.8333 50C20.8333 33.9021 33.9021 20.8333 50 20.8333ZM50 35.4167C58.0479 35.4167 64.5833 41.95 64.5833 50C64.5833 58.0479 58.0479 64.5833 50 64.5833C41.9521 64.5833 35.4167 58.0479 35.4167 50C35.4167 41.95 41.95 35.4167 50 35.4167Z" fill="white"/>
<path fill-rule="evenodd" clip-rule="evenodd" d="M88.5104 27.5104C89.5854 28.5167 89.5646 30.0333 89.5646 31.2271C89.5646 39.1333 89.4979 61.6208 89.5833 69.5271C89.5917 70.3521 89.3188 71.2208 88.9104 71.875L49.1521 50L88.5104 27.5104Z" fill="#0075C0"/>
<path fill-rule="evenodd" clip-rule="evenodd" d="M64.5833 43.75H68.75V56.25H64.5833V43.75ZM79.1667 43.75H83.3333V56.25H79.1667V43.75Z" fill="white"/>
<path fill-rule="evenodd" clip-rule="evenodd" d="M60.4167 47.9167H72.9167V52.0833H60.4167V47.9167ZM75 47.9167H87.5V52.0833H75V47.9167Z" fill="white"/>
</svg>
