<svg width="100" height="100" viewBox="0 0 100 100" fill="none" xmlns="http://www.w3.org/2000/svg">
<path d="M24.1146 18.2458C26.4646 18.6146 29.4333 19.2042 32.6021 20.1042C31.8875 22.1396 31.2771 24.2792 30.8187 26.4729C28.5417 26.4521 26.2917 26.6104 24.1271 26.8917C23.9208 23.6333 23.975 20.6396 24.1146 18.2458ZM21.0042 27.3833C20.825 24.7875 20.8125 22.3604 20.8792 20.2271C20.7687 20.3354 20.6458 20.4271 20.5354 20.5375C17.9312 23.1417 15.7917 26.0292 14.0208 29.0729C16.0771 28.4646 18.4208 27.8604 21.0042 27.3833ZM25.4271 35.6688C26.6333 33.5979 28.0917 31.6354 29.8625 29.8625C29.9562 29.7688 30.0583 29.6917 30.1521 29.6C28.2042 29.6167 26.2729 29.7708 24.4042 30.0208C24.6208 31.8875 24.975 33.7854 25.4271 35.6688ZM22.7687 38.0042C22.0708 35.5146 21.5958 32.9875 21.2979 30.5292C17.625 31.2292 14.3896 32.1896 12.0042 33.0063C11.9625 33.1 11.9167 33.1896 11.875 33.2833C12.9208 35.625 14.45 38.6938 16.4667 41.8917C18.4167 40.4833 20.525 39.1521 22.7687 38.0042ZM14.1167 43.6771C12.625 41.3396 11.4146 39.0938 10.4292 37.0896C9.19375 40.8958 8.52292 44.8375 8.41042 48.8C9.98958 47.2208 11.9104 45.4438 14.1167 43.6771ZM8.75417 55.4667C9.27917 59.4708 10.3875 63.4 12.0729 67.1417C12.8458 64.9958 13.8396 62.5479 15.0937 60.0063C12.6729 58.4771 10.5333 56.8958 8.75417 55.4667ZM9 52.4021C10.8896 53.9958 13.3792 55.9146 16.2687 57.7583C17.4187 55.6625 18.75 53.5729 20.275 51.5896C18.6062 49.8563 17.1042 48.0042 15.7667 46.1271C13.0062 48.3583 10.6812 50.6208 9 52.4021ZM18.1 44.3375C19.1542 45.8313 20.3354 47.2896 21.6 48.6854C21.7146 46.1729 22.1521 43.6771 22.9271 41.2604C21.2354 42.2042 19.6104 43.2375 18.1 44.3375ZM33.8146 16.9542C34.8083 14.5563 35.8729 12.3833 36.8812 10.5042C33.4021 11.6542 30.0375 13.2396 26.9042 15.3271C28.9792 15.7125 31.3229 16.2313 33.8146 16.9542ZM37.0292 17.9688C38.9437 18.6375 40.8812 19.4375 42.7833 20.3667C44.5792 18.2875 46.1187 16.5354 47.1521 15.3667C45.6521 14.1229 43.2729 12.2104 40.7708 10.3979C39.5979 12.4521 38.2583 15.0458 37.0292 17.9688ZM23.2667 74.175C20.2708 73.9021 17.5167 73.4313 15.2104 72.9396C16.7333 75.2479 18.5083 77.4354 20.5375 79.4646C21.6062 80.5333 22.7229 81.5208 23.8729 82.4479C23.5562 80.0667 23.3 77.2292 23.2667 74.175ZM79.4625 20.5354C70.1667 11.2417 57.5354 7.28959 45.3854 8.63334C48.6792 11.1458 51.3021 13.4125 51.4937 13.5813L53.0917 14.9708L51.6771 16.5458C51.6437 16.5833 49.8104 18.6313 47.1562 21.6833C48.1021 21.5896 49.05 21.5375 50 21.5375C57.2917 21.5375 64.5854 24.3146 70.1375 29.8646C81.2417 40.9688 81.2417 59.0354 70.1375 70.1396C60.5167 79.7583 45.6708 81.0271 34.6542 73.9771C32.5417 74.2833 30.4167 74.4229 28.3396 74.4229C27.4083 74.4229 26.4937 74.3896 25.5875 74.3438C25.6437 78.2396 26.0729 81.775 26.4958 84.3792C33.5562 89.2104 41.7729 91.6542 50.0021 91.6542C60.6729 91.6542 71.3417 87.5917 79.4646 79.4708C95.7083 63.2167 95.7083 36.7833 79.4625 20.5354ZM31.8667 71.9479C31.1792 71.3792 30.5083 70.7813 29.8646 70.1396C28.4667 68.7417 27.2458 67.2313 26.2 65.6396C25.8479 67.7792 25.6583 69.925 25.6042 72.0146C27.6417 72.125 29.7542 72.1063 31.8667 71.9479ZM35.8021 21.1063C35.2146 22.7583 34.7125 24.4833 34.3 26.2396C36.1958 24.9854 38.2167 24.0125 40.3 23.2604C40.3729 23.175 40.4542 23.0771 40.5271 22.9917C38.9646 22.2708 37.3771 21.6479 35.8021 21.1063ZM21.8125 53.7479C20.55 55.4646 19.4146 57.2583 18.4292 59.0688C20.2312 60.1104 22.1562 61.0625 24.1542 61.8792C22.9625 59.2771 22.1792 56.5375 21.8125 53.7479ZM24.0437 64.5479C21.6562 63.6375 19.3833 62.5229 17.2687 61.3125C15.6542 64.6167 14.475 67.7771 13.6812 70.2208C16.1854 70.8271 19.5625 71.4875 23.2917 71.8438C23.3625 69.4604 23.5917 67.0021 24.0437 64.5479Z" fill="url(#paint0_linear_122_96)"/>
<defs>
<linearGradient id="paint0_linear_122_96" x1="43.4104" y1="8.82084" x2="55.7687" y2="85.7875" gradientUnits="userSpaceOnUse">
<stop stop-color="#50D133"/>
<stop offset="1" stop-color="#3DA126"/>
</linearGradient>
</defs>
</svg>
