<svg width="196" height="110" viewBox="0 0 196 110" fill="none" xmlns="http://www.w3.org/2000/svg">
<path d="M101 66L99.139 66.7326L99.204 66.8978L99.2971 67.049L101 66ZM129.5 25.5L129.138 23.533L129.5 25.5ZM0 99.5L22.4266 93.988L6.43979 77.322L0 99.5ZM10.532 92.4799C12.3891 90.8392 14.5067 89.0066 16.8631 87.0253L14.2888 83.9637C11.9061 85.9672 9.7638 87.8211 7.88366 89.4822L10.532 92.4799ZM23.3143 81.7271C25.3815 80.0686 27.5737 78.3466 29.8819 76.5795L27.4503 73.4034C25.1169 75.1898 22.9008 76.9306 20.8112 78.6071L23.3143 81.7271ZM36.5812 71.5716C38.766 69.9775 41.0318 68.3623 43.3724 66.7383L41.092 63.4519C38.7243 65.0948 36.4328 66.7283 34.2235 68.3403L36.5812 71.5716ZM50.2942 62.0604C52.5774 60.5587 54.919 59.0592 57.3143 57.5717L55.204 54.1736C52.7779 55.6803 50.407 57.1985 48.0961 58.7185L50.2942 62.0604ZM64.4654 53.2652C66.841 51.8794 69.2609 50.5128 71.721 49.1735L69.8084 45.6604C67.3123 47.0193 64.8581 48.4053 62.4499 49.81L64.4654 53.2652ZM79.0974 45.3063C81.5645 44.0629 84.0656 42.853 86.5969 41.6841L84.92 38.0526C82.3454 39.2414 79.8032 40.4712 77.2971 41.7343L79.0974 45.3063ZM94.2113 38.3356C96.7643 37.2697 99.3429 36.251 101.943 35.2866L100.553 31.5362C97.8993 32.5201 95.2707 33.5587 92.6702 34.6444L94.2113 38.3356ZM109.791 32.5685C112.426 31.7213 115.079 30.9353 117.747 30.2176L116.707 26.355C113.975 27.0902 111.26 27.8945 108.567 28.7605L109.791 32.5685ZM125.803 28.2731C127.153 27.9852 128.506 27.7162 129.862 27.4671L129.138 23.533C127.745 23.7891 126.355 24.0654 124.969 24.361L125.803 28.2731ZM129.862 27.4671C131.3 27.2027 132.701 26.9704 134.066 26.7691L133.482 22.8119C132.069 23.0203 130.621 23.2604 129.138 23.533L129.862 27.4671ZM142.378 25.8896C145.358 25.7103 148.124 25.7046 150.687 25.8552L150.921 21.8621C148.185 21.7013 145.26 21.709 142.138 21.8968L142.378 25.8896ZM158.815 26.9865C161.684 27.6549 164.193 28.5749 166.377 29.7001L168.209 26.1442C165.704 24.8535 162.88 23.8265 159.723 23.0909L158.815 26.9865ZM172.711 34.3601C174.552 36.2726 175.992 38.4553 177.07 40.8568L180.719 39.2191C179.464 36.4232 177.772 33.8501 175.593 31.586L172.711 34.3601ZM179.233 48.527C179.605 51.1121 179.693 53.8417 179.523 56.6676L183.516 56.9082C183.7 53.848 183.607 50.8445 183.192 47.9576L179.233 48.527ZM178.382 64.8301C177.814 67.4856 177.059 70.1686 176.142 72.84L179.925 74.1396C180.89 71.3282 181.689 68.4906 182.293 65.6668L178.382 64.8301ZM173.016 80.5794C171.84 83.1101 170.534 85.5883 169.123 87.9778L172.567 90.0119C174.045 87.5103 175.411 84.9158 176.643 82.2651L173.016 80.5794ZM164.521 94.9449C163.687 96.0749 162.832 97.1699 161.959 98.2249L165.041 100.775C165.963 99.6612 166.863 98.5075 167.74 97.3195L164.521 94.9449ZM161.959 98.2249C161.085 99.2808 160.2 100.196 159.309 100.982L161.955 103.981C163.016 103.046 164.045 101.979 165.041 100.775L161.959 98.2249ZM152.984 104.583C150.657 105.263 148.237 105.341 145.741 104.912L145.064 108.854C148.076 109.372 151.119 109.295 154.106 108.422L152.984 104.583ZM138.536 102.439C136.3 101.323 134.058 99.91 131.839 98.2767L129.468 101.498C131.83 103.237 134.269 104.78 136.751 106.018L138.536 102.439ZM125.683 93.1626C123.707 91.3426 121.794 89.4156 119.97 87.4548L117.041 90.1792C118.924 92.203 120.91 94.2045 122.973 96.1048L125.683 93.1626ZM114.625 81.3437C112.778 79.1062 111.091 76.9329 109.603 74.9381L106.397 77.3298C107.918 79.3695 109.646 81.5952 111.541 83.8903L114.625 81.3437ZM104.886 68.297C104.179 67.2481 103.63 66.4068 103.259 65.83C103.074 65.5416 102.933 65.3194 102.84 65.1705C102.793 65.0961 102.758 65.04 102.735 65.0031C102.724 64.9847 102.715 64.971 102.71 64.9623C102.707 64.958 102.705 64.9548 102.704 64.9529C102.703 64.952 102.703 64.9514 102.703 64.9511C102.703 64.9509 102.703 64.9508 102.703 64.9508C102.703 64.9508 102.703 64.9508 102.703 64.9509C102.703 64.9509 102.703 64.9509 102.703 64.9509C102.703 64.951 102.703 64.951 101 66C99.2971 67.049 99.2972 67.049 99.2972 67.0491C99.2972 67.0491 99.2973 67.0492 99.2973 67.0492C99.2974 67.0494 99.2975 67.0495 99.2976 67.0497C99.2978 67.05 99.298 67.0504 99.2983 67.0508C99.2989 67.0518 99.2997 67.053 99.3006 67.0546C99.3026 67.0577 99.3053 67.0621 99.3087 67.0677C99.3157 67.0789 99.3257 67.0951 99.3388 67.1161C99.3649 67.1581 99.4032 67.2195 99.4534 67.2992C99.5536 67.4588 99.7013 67.6921 99.894 67.9919C100.279 68.5916 100.844 69.458 101.57 70.5337L104.886 68.297ZM101 66C102.861 65.2674 102.861 65.2675 102.861 65.2676C102.861 65.2676 102.861 65.2676 102.861 65.2677C102.861 65.2677 102.861 65.2678 102.861 65.2678C102.861 65.2679 102.861 65.2679 102.861 65.2678C102.861 65.2676 102.861 65.2671 102.861 65.2662C102.86 65.2645 102.859 65.2615 102.857 65.2572C102.854 65.2486 102.848 65.2349 102.841 65.2161C102.826 65.1784 102.804 65.1205 102.775 65.043C102.716 64.8881 102.629 64.6552 102.518 64.3504C102.296 63.7408 101.979 62.8442 101.606 61.7097L97.8065 62.9606C98.1942 64.1379 98.5245 65.0737 98.7592 65.7185C98.8765 66.041 98.97 66.2909 99.0349 66.4619C99.0674 66.5474 99.0927 66.6132 99.1102 66.6586C99.119 66.6813 99.1258 66.6989 99.1306 66.7112C99.1331 66.7174 99.135 66.7223 99.1364 66.7259C99.1371 66.7277 99.1376 66.7291 99.1381 66.7302C99.1383 66.7308 99.1385 66.7313 99.1386 66.7317C99.1387 66.7319 99.1388 66.732 99.1388 66.7322C99.1389 66.7323 99.1389 66.7324 99.1389 66.7324C99.139 66.7325 99.139 66.7326 101 66ZM99.4293 54.2443C98.8389 51.9335 98.2602 49.3693 97.7733 46.6563L93.8362 47.3629C94.3428 50.1853 94.9432 52.8449 95.5538 55.2345L99.4293 54.2443ZM96.736 39.0063C96.5117 36.4651 96.4145 33.8926 96.4955 31.3577L92.4975 31.23C92.4107 33.9503 92.5155 36.6849 92.7515 39.3581L96.736 39.0063ZM97.3385 23.8626C97.8525 21.3717 98.6122 19.0189 99.6653 16.8706L96.0736 15.11C94.8482 17.6099 93.9911 20.2917 93.4211 23.0542L97.3385 23.8626ZM103.83 11.0243C105.445 9.43656 107.392 8.06566 109.738 6.98084L108.06 3.35019C105.304 4.62431 102.974 6.25621 101.026 8.17211L103.83 11.0243ZM116.781 4.8513C119.012 4.46456 121.489 4.25915 124.235 4.26781L124.248 0.267831C121.296 0.258526 118.584 0.479092 116.098 0.910036L116.781 4.8513ZM131.845 4.77514C134.223 5.06797 136.755 5.49217 139.45 6.05976L140.275 2.14563C137.479 1.55686 134.835 1.11306 132.334 0.805121L131.845 4.77514ZM146.975 7.90672C149.351 8.56634 151.832 9.32275 154.424 10.1817L155.682 6.3847C153.033 5.50664 150.488 4.7309 148.046 4.05257L146.975 7.90672ZM161.838 12.8079C164.188 13.6912 166.617 14.6502 169.13 15.6882L170.657 11.9913C168.107 10.9378 165.637 9.96289 163.245 9.0637L161.838 12.8079ZM176.246 18.7432C178.581 19.7819 180.981 20.8835 183.448 22.0502L185.158 18.4342C182.665 17.2549 180.236 16.1403 177.871 15.0884L176.246 18.7432ZM190.458 25.4529C191.655 26.0484 192.866 26.6581 194.093 27.2823L195.907 23.7177C194.67 23.0879 193.448 22.4726 192.239 21.8715L190.458 25.4529Z" fill="#FFDB62"/>
</svg>
